<?xml version="1.0" standalone="no"?>
<!DOCTYPE svg PUBLIC "-//W3C//DTD SVG 20010904//EN"
 "http://www.w3.org/TR/2001/REC-SVG-20010904/DTD/svg10.dtd">
<svg version="1.0" xmlns="http://www.w3.org/2000/svg"
 width="200" height="1500.000000pt" viewBox="0 0 2000.000000 1500.000000"
 preserveAspectRatio="xMidYMid meet">

<g transform="translate(0.000000,1500.000000) scale(0.100000,-0.100000)"
fill="#000000" stroke="none">
<path d="M9633 10204 c-768 -83 -1467 -418 -2014 -964 -278 -278 -469 -541
-643 -888 -172 -343 -286 -727 -332 -1122 -21 -173 -23 -562 -5 -720 120
-1039 654 -1915 1512 -2480 439 -289 918 -461 1479 -532 158 -20 611 -17 775
6 546 74 1020 250 1462 544 547 363 994 906 1240 1506 125 303 199 592 239
926 23 196 24 553 0 750 -186 1581 -1424 2808 -3002 2975 -171 18 -542 18
-711 -1z m787 -39 c705 -97 1341 -394 1837 -859 578 -540 921 -1191 1045
-1981 29 -190 37 -614 14 -825 -81 -748 -401 -1431 -919 -1967 -542 -560
-1233 -902 -2021 -1000 -164 -20 -563 -23 -726 -4 -799 90 -1505 434 -2055
1003 -521 538 -839 1218 -921 1968 -13 122 -15 212 -11 425 5 279 18 403 67
630 286 1334 1366 2365 2715 2590 83 14 195 29 250 34 145 14 587 5 725 -14z"/>
<path d="M10886 8484 c-160 -39 -334 -186 -478 -404 -295 -448 -688 -1266
-1117 -2325 l-77 -190 -145 -140 c-266 -259 -421 -368 -604 -424 -86 -27 -205
-29 -274 -6 -246 81 -235 486 27 1015 l57 115 420 5 c373 4 427 7 482 24 65
19 113 56 113 86 0 9 -12 27 -26 41 l-26 24 -429 3 c-236 1 -429 5 -429 8 0 9
456 696 581 875 60 87 109 166 109 177 0 95 -256 93 -400 -2 -62 -41 -370
-534 -555 -890 l-85 -163 -181 -6 c-183 -7 -221 -15 -243 -49 -18 -29 5 -89
44 -116 34 -23 40 -24 158 -19 67 3 122 2 122 -2 0 -5 -14 -41 -31 -82 -47
-115 -98 -293 -120 -417 -21 -123 -25 -327 -10 -422 30 -180 134 -313 281
-358 76 -23 243 -22 330 2 195 55 411 190 648 405 l110 100 -30 -92 c-39 -121
-50 -283 -23 -352 21 -56 60 -79 121 -72 76 8 129 49 213 165 143 198 234 307
350 423 98 97 131 123 200 157 135 68 219 55 275 -40 14 -25 48 -128 76 -234
65 -246 93 -323 137 -373 48 -57 80 -71 159 -71 210 0 450 139 798 463 117
109 146 146 146 190 0 61 -53 41 -145 -53 -71 -73 -235 -210 -320 -267 -129
-87 -243 -129 -328 -120 -42 4 -56 11 -83 39 -56 62 -73 129 -100 393 -29 283
-41 335 -94 387 -34 35 -42 38 -93 38 -113 0 -250 -63 -436 -201 -61 -45 -185
-161 -343 -320 -137 -138 -248 -244 -248 -236 0 7 21 85 46 173 67 234 184
528 300 756 35 69 52 88 174 194 174 153 503 476 639 629 390 437 627 839 697
1186 21 104 14 200 -19 273 -48 105 -158 140 -321 100z m139 -120 c53 -21 62
-142 20 -274 -117 -373 -460 -906 -900 -1398 -190 -212 -316 -341 -306 -311
70 200 377 866 567 1231 304 582 435 756 571 758 17 0 39 -3 48 -6z"/>
</g>
</svg>
