<svg xmlns="http://www.w3.org/2000/svg" version="1.1" xmlns:xlink="http://www.w3.org/1999/xlink" xmlns:svgjs="http://svgjs.dev/svgjs" width="1440" height="740" preserveAspectRatio="none" viewBox="0 0 1440 740"><g mask="url(&quot;#SvgjsMask1238&quot;)" fill="none"><rect width="1440" height="740" x="0" y="0" fill="rgba(255, 255, 255, 1)"></rect><g mask="url(&quot;#SvgjsMask1239&quot;)"><path d="M1340 180L1420 100L1420 20" stroke-width="6.67" stroke="rgba(73, 195, 58, 0.47)"></path><path d="M1330 180 a10 10 0 1 0 20 0 a10 10 0 1 0 -20 0zM1410 20 a10 10 0 1 0 20 0 a10 10 0 1 0 -20 0z" fill="rgba(73, 195, 58, 0.47)"></path><path d="M500 580L500 740" stroke-width="6.67" stroke="rgba(73, 195, 58, 0.47)"></path><path d="M490 580 a10 10 0 1 0 20 0 a10 10 0 1 0 -20 0zM490 740 a10 10 0 1 0 20 0 a10 10 0 1 0 -20 0z" fill="rgba(73, 195, 58, 0.47)"></path><path d="M1340 540L1420 540" stroke-width="6.67" stroke="rgba(73, 195, 58, 0.47)"></path><path d="M1330 540 a10 10 0 1 0 20 0 a10 10 0 1 0 -20 0zM1410 540 a10 10 0 1 0 20 0 a10 10 0 1 0 -20 0z" fill="rgba(73, 195, 58, 0.47)"></path><path d="M1220 460L1220 300L1300 220L1420 220" stroke-width="6.67" stroke="rgba(73, 195, 58, 0.47)"></path><path d="M1210 460 a10 10 0 1 0 20 0 a10 10 0 1 0 -20 0zM1410 220 a10 10 0 1 0 20 0 a10 10 0 1 0 -20 0z" fill="rgba(73, 195, 58, 0.47)"></path><path d="M380 740L20 380L20 20" stroke-width="6.67" stroke="rgba(73, 195, 58, 0.47)"></path><path d="M370 740 a10 10 0 1 0 20 0 a10 10 0 1 0 -20 0zM10 20 a10 10 0 1 0 20 0 a10 10 0 1 0 -20 0z" fill="rgba(73, 195, 58, 0.47)"></path><path d="M1420 380L1060 740L780 740L700 660L660 660" stroke-width="6.67" stroke="rgba(73, 195, 58, 0.47)"></path><path d="M1410 380 a10 10 0 1 0 20 0 a10 10 0 1 0 -20 0zM650 660 a10 10 0 1 0 20 0 a10 10 0 1 0 -20 0z" fill="rgba(73, 195, 58, 0.47)"></path><path d="M300 700L260 660L20 660" stroke-width="6.67" stroke="rgba(73, 195, 58, 0.47)"></path><path d="M290 700 a10 10 0 1 0 20 0 a10 10 0 1 0 -20 0zM10 660 a10 10 0 1 0 20 0 a10 10 0 1 0 -20 0z" fill="rgba(73, 195, 58, 0.47)"></path><path d="M980 620L980 700" stroke-width="6.67" stroke="rgba(73, 195, 58, 0.47)"></path><path d="M970 620 a10 10 0 1 0 20 0 a10 10 0 1 0 -20 0zM970 700 a10 10 0 1 0 20 0 a10 10 0 1 0 -20 0z" fill="rgba(73, 195, 58, 0.47)"></path><path d="M100 260L60 220L60 20" stroke-width="6.67" stroke="rgba(73, 195, 58, 0.47)"></path><path d="M90 260 a10 10 0 1 0 20 0 a10 10 0 1 0 -20 0zM50 20 a10 10 0 1 0 20 0 a10 10 0 1 0 -20 0z" fill="rgba(73, 195, 58, 0.47)"></path><path d="M140 260L140 460L420 740L460 740" stroke-width="6.67" stroke="rgba(73, 195, 58, 0.47)"></path><path d="M130 260 a10 10 0 1 0 20 0 a10 10 0 1 0 -20 0zM450 740 a10 10 0 1 0 20 0 a10 10 0 1 0 -20 0z" fill="rgba(73, 195, 58, 0.47)"></path><path d="M1260 140L1340 140L1380 100L1380 20" stroke-width="6.67" stroke="rgba(73, 195, 58, 0.47)"></path><path d="M1250 140 a10 10 0 1 0 20 0 a10 10 0 1 0 -20 0zM1370 20 a10 10 0 1 0 20 0 a10 10 0 1 0 -20 0z" fill="rgba(73, 195, 58, 0.47)"></path><path d="M1060 340L1140 260L1220 260L1260 220L1260 180L1100 20" stroke-width="6.67" stroke="rgba(73, 195, 58, 0.47)"></path><path d="M1050 340 a10 10 0 1 0 20 0 a10 10 0 1 0 -20 0zM1090 20 a10 10 0 1 0 20 0 a10 10 0 1 0 -20 0z" fill="rgba(73, 195, 58, 0.47)"></path><path d="M900 500L900 100L980 20L1020 20" stroke-width="6.67" stroke="rgba(73, 195, 58, 0.47)"></path><path d="M890 500 a10 10 0 1 0 20 0 a10 10 0 1 0 -20 0zM1010 20 a10 10 0 1 0 20 0 a10 10 0 1 0 -20 0z" fill="rgba(73, 195, 58, 0.47)"></path><path d="M620 100L220 100L140 20L100 20" stroke-width="6.67" stroke="rgba(73, 195, 58, 0.47)"></path><path d="M610 100 a10 10 0 1 0 20 0 a10 10 0 1 0 -20 0zM90 20 a10 10 0 1 0 20 0 a10 10 0 1 0 -20 0z" fill="rgba(73, 195, 58, 0.47)"></path><path d="M580 500L500 420L500 140" stroke-width="6.67" stroke="rgba(73, 195, 58, 0.47)"></path><path d="M570 500 a10 10 0 1 0 20 0 a10 10 0 1 0 -20 0zM490 140 a10 10 0 1 0 20 0 a10 10 0 1 0 -20 0z" fill="rgba(73, 195, 58, 0.47)"></path><path d="M140 180L140 220L460 540L700 540L740 500L820 500L860 540" stroke-width="6.67" stroke="rgba(73, 195, 58, 0.47)"></path><path d="M130 180 a10 10 0 1 0 20 0 a10 10 0 1 0 -20 0zM850 540 a10 10 0 1 0 20 0 a10 10 0 1 0 -20 0z" fill="rgba(73, 195, 58, 0.47)"></path><path d="M660 420L860 420" stroke-width="6.67" stroke="rgba(73, 195, 58, 0.47)"></path><path d="M650 420 a10 10 0 1 0 20 0 a10 10 0 1 0 -20 0zM850 420 a10 10 0 1 0 20 0 a10 10 0 1 0 -20 0z" fill="rgba(73, 195, 58, 0.47)"></path><path d="M540 20L940 20" stroke-width="6.67" stroke="rgba(73, 195, 58, 0.47)"></path><path d="M530 20 a10 10 0 1 0 20 0 a10 10 0 1 0 -20 0zM930 20 a10 10 0 1 0 20 0 a10 10 0 1 0 -20 0z" fill="rgba(73, 195, 58, 0.47)"></path><path d="M1060 420L940 300L940 100L980 60L1020 60L1060 100L1060 140L1140 220L1220 220" stroke-width="6.67" stroke="rgba(73, 195, 58, 0.47)"></path><path d="M1050 420 a10 10 0 1 0 20 0 a10 10 0 1 0 -20 0zM1210 220 a10 10 0 1 0 20 0 a10 10 0 1 0 -20 0z" fill="rgba(73, 195, 58, 0.47)"></path><path d="M700 340L700 60" stroke-width="6.67" stroke="rgba(73, 195, 58, 0.47)"></path><path d="M690 340 a10 10 0 1 0 20 0 a10 10 0 1 0 -20 0zM690 60 a10 10 0 1 0 20 0 a10 10 0 1 0 -20 0z" fill="rgba(73, 195, 58, 0.47)"></path><path d="M740 60L900 60" stroke-width="6.67" stroke="rgba(73, 195, 58, 0.47)"></path><path d="M730 60 a10 10 0 1 0 20 0 a10 10 0 1 0 -20 0zM890 60 a10 10 0 1 0 20 0 a10 10 0 1 0 -20 0z" fill="rgba(73, 195, 58, 0.47)"></path><path d="M1180 460L1220 500L1260 500L1420 340L1420 260" stroke-width="6.67" stroke="rgba(73, 195, 58, 0.47)"></path><path d="M1170 460 a10 10 0 1 0 20 0 a10 10 0 1 0 -20 0zM1410 260 a10 10 0 1 0 20 0 a10 10 0 1 0 -20 0z" fill="rgba(73, 195, 58, 0.47)"></path><path d="M380 580L460 660L460 700" stroke-width="6.67" stroke="rgba(73, 195, 58, 0.47)"></path><path d="M370 580 a10 10 0 1 0 20 0 a10 10 0 1 0 -20 0zM450 700 a10 10 0 1 0 20 0 a10 10 0 1 0 -20 0z" fill="rgba(73, 195, 58, 0.47)"></path><path d="M740 300L740 100" stroke-width="6.67" stroke="rgba(73, 195, 58, 0.47)"></path><path d="M730 300 a10 10 0 1 0 20 0 a10 10 0 1 0 -20 0zM730 100 a10 10 0 1 0 20 0 a10 10 0 1 0 -20 0z" fill="rgba(73, 195, 58, 0.47)"></path><path d="M540 420L540 140" stroke-width="6.67" stroke="rgba(73, 195, 58, 0.47)"></path><path d="M530 420 a10 10 0 1 0 20 0 a10 10 0 1 0 -20 0zM530 140 a10 10 0 1 0 20 0 a10 10 0 1 0 -20 0z" fill="rgba(73, 195, 58, 0.47)"></path><path d="M1060 580L1020 540L1020 420L940 340" stroke-width="6.67" stroke="rgba(73, 195, 58, 0.47)"></path><path d="M1050 580 a10 10 0 1 0 20 0 a10 10 0 1 0 -20 0zM930 340 a10 10 0 1 0 20 0 a10 10 0 1 0 -20 0z" fill="rgba(73, 195, 58, 0.47)"></path><path d="M660 140L580 140" stroke-width="6.67" stroke="rgba(73, 195, 58, 0.47)"></path><path d="M650 140 a10 10 0 1 0 20 0 a10 10 0 1 0 -20 0zM570 140 a10 10 0 1 0 20 0 a10 10 0 1 0 -20 0z" fill="rgba(73, 195, 58, 0.47)"></path><path d="M1220 700L1180 740L1100 740" stroke-width="6.67" stroke="rgba(73, 195, 58, 0.47)"></path><path d="M1210 700 a10 10 0 1 0 20 0 a10 10 0 1 0 -20 0zM1090 740 a10 10 0 1 0 20 0 a10 10 0 1 0 -20 0z" fill="rgba(73, 195, 58, 0.47)"></path><path d="M820 180L860 140L860 100" stroke-width="6.67" stroke="rgba(73, 195, 58, 0.47)"></path><path d="M810 180 a10 10 0 1 0 20 0 a10 10 0 1 0 -20 0zM850 100 a10 10 0 1 0 20 0 a10 10 0 1 0 -20 0z" fill="rgba(73, 195, 58, 0.47)"></path><path d="M1380 740L1420 700L1420 660L1300 540" stroke-width="6.67" stroke="rgba(73, 195, 58, 0.47)"></path><path d="M1370 740 a10 10 0 1 0 20 0 a10 10 0 1 0 -20 0zM1290 540 a10 10 0 1 0 20 0 a10 10 0 1 0 -20 0z" fill="rgba(73, 195, 58, 0.47)"></path><path d="M940 540L940 380" stroke-width="6.67" stroke="rgba(73, 195, 58, 0.47)"></path><path d="M930 540 a10 10 0 1 0 20 0 a10 10 0 1 0 -20 0zM930 380 a10 10 0 1 0 20 0 a10 10 0 1 0 -20 0z" fill="rgba(73, 195, 58, 0.47)"></path><path d="M1260 300L1260 460" stroke-width="6.67" stroke="rgba(73, 195, 58, 0.47)"></path><path d="M1250 300 a10 10 0 1 0 20 0 a10 10 0 1 0 -20 0zM1250 460 a10 10 0 1 0 20 0 a10 10 0 1 0 -20 0z" fill="rgba(73, 195, 58, 0.47)"></path><path d="M620 260L580 300L580 460L620 500L700 500L740 460L860 460" stroke-width="6.67" stroke="rgba(73, 195, 58, 0.47)"></path><path d="M610 260 a10 10 0 1 0 20 0 a10 10 0 1 0 -20 0zM850 460 a10 10 0 1 0 20 0 a10 10 0 1 0 -20 0z" fill="rgba(73, 195, 58, 0.47)"></path><path d="M260 500L300 460L340 460L460 580L460 620" stroke-width="6.67" stroke="rgba(73, 195, 58, 0.47)"></path><path d="M250 500 a10 10 0 1 0 20 0 a10 10 0 1 0 -20 0zM450 620 a10 10 0 1 0 20 0 a10 10 0 1 0 -20 0z" fill="rgba(73, 195, 58, 0.47)"></path><path d="M980 500L980 580L860 700L780 700L660 580L540 580" stroke-width="6.67" stroke="rgba(73, 195, 58, 0.47)"></path><path d="M970 500 a10 10 0 1 0 20 0 a10 10 0 1 0 -20 0zM530 580 a10 10 0 1 0 20 0 a10 10 0 1 0 -20 0z" fill="rgba(73, 195, 58, 0.47)"></path><path d="M460 460L460 220L380 140" stroke-width="6.67" stroke="rgba(73, 195, 58, 0.47)"></path><path d="M450 460 a10 10 0 1 0 20 0 a10 10 0 1 0 -20 0zM370 140 a10 10 0 1 0 20 0 a10 10 0 1 0 -20 0z" fill="rgba(73, 195, 58, 0.47)"></path><path d="M380 20L500 20L540 60L660 60" stroke-width="6.67" stroke="rgba(73, 195, 58, 0.47)"></path><path d="M370 20 a10 10 0 1 0 20 0 a10 10 0 1 0 -20 0zM650 60 a10 10 0 1 0 20 0 a10 10 0 1 0 -20 0z" fill="rgba(73, 195, 58, 0.47)"></path><path d="M180 180L180 220L380 420L420 420" stroke-width="6.67" stroke="rgba(73, 195, 58, 0.47)"></path><path d="M170 180 a10 10 0 1 0 20 0 a10 10 0 1 0 -20 0zM410 420 a10 10 0 1 0 20 0 a10 10 0 1 0 -20 0z" fill="rgba(73, 195, 58, 0.47)"></path><path d="M780 260L780 380" stroke-width="6.67" stroke="rgba(73, 195, 58, 0.47)"></path><path d="M770 260 a10 10 0 1 0 20 0 a10 10 0 1 0 -20 0zM770 380 a10 10 0 1 0 20 0 a10 10 0 1 0 -20 0z" fill="rgba(73, 195, 58, 0.47)"></path><path d="M1140 340L1100 340L1060 380" stroke-width="6.67" stroke="rgba(73, 195, 58, 0.47)"></path><path d="M1130 340 a10 10 0 1 0 20 0 a10 10 0 1 0 -20 0zM1050 380 a10 10 0 1 0 20 0 a10 10 0 1 0 -20 0z" fill="rgba(73, 195, 58, 0.47)"></path><path d="M100 140L140 100L180 100L420 340L420 380" stroke-width="6.67" stroke="rgba(73, 195, 58, 0.47)"></path><path d="M90 140 a10 10 0 1 0 20 0 a10 10 0 1 0 -20 0zM410 380 a10 10 0 1 0 20 0 a10 10 0 1 0 -20 0z" fill="rgba(73, 195, 58, 0.47)"></path><path d="M180 300L180 460" stroke-width="6.67" stroke="rgba(73, 195, 58, 0.47)"></path><path d="M170 300 a10 10 0 1 0 20 0 a10 10 0 1 0 -20 0zM170 460 a10 10 0 1 0 20 0 a10 10 0 1 0 -20 0z" fill="rgba(73, 195, 58, 0.47)"></path><path d="M260 260L300 260L340 300L340 340L380 380" stroke-width="6.67" stroke="rgba(73, 195, 58, 0.47)"></path><path d="M250 260 a10 10 0 1 0 20 0 a10 10 0 1 0 -20 0zM370 380 a10 10 0 1 0 20 0 a10 10 0 1 0 -20 0z" fill="rgba(73, 195, 58, 0.47)"></path><path d="M980 220L980 100" stroke-width="6.67" stroke="rgba(73, 195, 58, 0.47)"></path><path d="M970 220 a10 10 0 1 0 20 0 a10 10 0 1 0 -20 0zM970 100 a10 10 0 1 0 20 0 a10 10 0 1 0 -20 0z" fill="rgba(73, 195, 58, 0.47)"></path><path d="M1180 20L1180 60L1220 100L1260 100L1340 20" stroke-width="6.67" stroke="rgba(73, 195, 58, 0.47)"></path><path d="M1170 20 a10 10 0 1 0 20 0 a10 10 0 1 0 -20 0zM1330 20 a10 10 0 1 0 20 0 a10 10 0 1 0 -20 0z" fill="rgba(73, 195, 58, 0.47)"></path><path d="M580 740L540 700L540 620" stroke-width="6.67" stroke="rgba(73, 195, 58, 0.47)"></path><path d="M570 740 a10 10 0 1 0 20 0 a10 10 0 1 0 -20 0zM530 620 a10 10 0 1 0 20 0 a10 10 0 1 0 -20 0z" fill="rgba(73, 195, 58, 0.47)"></path><path d="M860 580L820 540L740 540" stroke-width="6.67" stroke="rgba(73, 195, 58, 0.47)"></path><path d="M850 580 a10 10 0 1 0 20 0 a10 10 0 1 0 -20 0zM730 540 a10 10 0 1 0 20 0 a10 10 0 1 0 -20 0z" fill="rgba(73, 195, 58, 0.47)"></path><path d="M1100 540L1140 540L1180 500" stroke-width="6.67" stroke="rgba(73, 195, 58, 0.47)"></path><path d="M1090 540 a10 10 0 1 0 20 0 a10 10 0 1 0 -20 0zM1170 500 a10 10 0 1 0 20 0 a10 10 0 1 0 -20 0z" fill="rgba(73, 195, 58, 0.47)"></path><path d="M1220 660L1180 660L1140 700" stroke-width="6.67" stroke="rgba(73, 195, 58, 0.47)"></path><path d="M1210 660 a10 10 0 1 0 20 0 a10 10 0 1 0 -20 0zM1130 700 a10 10 0 1 0 20 0 a10 10 0 1 0 -20 0z" fill="rgba(73, 195, 58, 0.47)"></path><path d="M1060 660L1020 620L1020 580" stroke-width="6.67" stroke="rgba(73, 195, 58, 0.47)"></path><path d="M1050 660 a10 10 0 1 0 20 0 a10 10 0 1 0 -20 0zM1010 580 a10 10 0 1 0 20 0 a10 10 0 1 0 -20 0z" fill="rgba(73, 195, 58, 0.47)"></path><path d="M220 740L100 740L60 700" stroke-width="6.67" stroke="rgba(73, 195, 58, 0.47)"></path><path d="M210 740 a10 10 0 1 0 20 0 a10 10 0 1 0 -20 0zM50 700 a10 10 0 1 0 20 0 a10 10 0 1 0 -20 0z" fill="rgba(73, 195, 58, 0.47)"></path><path d="M100 500L20 500" stroke-width="6.67" stroke="rgba(73, 195, 58, 0.47)"></path><path d="M90 500 a10 10 0 1 0 20 0 a10 10 0 1 0 -20 0zM10 500 a10 10 0 1 0 20 0 a10 10 0 1 0 -20 0z" fill="rgba(73, 195, 58, 0.47)"></path><path d="M1020 180L1020 100" stroke-width="6.67" stroke="rgba(73, 195, 58, 0.47)"></path><path d="M1010 180 a10 10 0 1 0 20 0 a10 10 0 1 0 -20 0zM1010 100 a10 10 0 1 0 20 0 a10 10 0 1 0 -20 0z" fill="rgba(73, 195, 58, 0.47)"></path><path d="M300 180L420 300" stroke-width="6.67" stroke="rgba(73, 195, 58, 0.47)"></path><path d="M290 180 a10 10 0 1 0 20 0 a10 10 0 1 0 -20 0zM410 300 a10 10 0 1 0 20 0 a10 10 0 1 0 -20 0z" fill="rgba(73, 195, 58, 0.47)"></path><path d="M1060 220L1020 220L980 260L980 300" stroke-width="6.67" stroke="rgba(73, 195, 58, 0.47)"></path><path d="M1050 220 a10 10 0 1 0 20 0 a10 10 0 1 0 -20 0zM970 300 a10 10 0 1 0 20 0 a10 10 0 1 0 -20 0z" fill="rgba(73, 195, 58, 0.47)"></path><path d="M1100 140L1100 60" stroke-width="6.67" stroke="rgba(73, 195, 58, 0.47)"></path><path d="M1090 140 a10 10 0 1 0 20 0 a10 10 0 1 0 -20 0zM1090 60 a10 10 0 1 0 20 0 a10 10 0 1 0 -20 0z" fill="rgba(73, 195, 58, 0.47)"></path><path d="M1140 580L1180 540L1220 540" stroke-width="6.67" stroke="rgba(73, 195, 58, 0.47)"></path><path d="M1130 580 a10 10 0 1 0 20 0 a10 10 0 1 0 -20 0zM1210 540 a10 10 0 1 0 20 0 a10 10 0 1 0 -20 0z" fill="rgba(73, 195, 58, 0.47)"></path><path d="M620 620L620 740" stroke-width="6.67" stroke="rgba(73, 195, 58, 0.47)"></path><path d="M610 620 a10 10 0 1 0 20 0 a10 10 0 1 0 -20 0zM610 740 a10 10 0 1 0 20 0 a10 10 0 1 0 -20 0z" fill="rgba(73, 195, 58, 0.47)"></path><path d="M1140 500L1140 380" stroke-width="6.67" stroke="rgba(73, 195, 58, 0.47)"></path><path d="M1130 500 a10 10 0 1 0 20 0 a10 10 0 1 0 -20 0zM1130 380 a10 10 0 1 0 20 0 a10 10 0 1 0 -20 0z" fill="rgba(73, 195, 58, 0.47)"></path><path d="M100 580L140 620L220 620" stroke-width="6.67" stroke="rgba(73, 195, 58, 0.47)"></path><path d="M90 580 a10 10 0 1 0 20 0 a10 10 0 1 0 -20 0zM210 620 a10 10 0 1 0 20 0 a10 10 0 1 0 -20 0z" fill="rgba(73, 195, 58, 0.47)"></path><path d="M340 620L260 540" stroke-width="6.67" stroke="rgba(73, 195, 58, 0.47)"></path><path d="M330 620 a10 10 0 1 0 20 0 a10 10 0 1 0 -20 0zM250 540 a10 10 0 1 0 20 0 a10 10 0 1 0 -20 0z" fill="rgba(73, 195, 58, 0.47)"></path><path d="M1100 460L1100 500L1060 540" stroke-width="6.67" stroke="rgba(73, 195, 58, 0.47)"></path><path d="M1090 460 a10 10 0 1 0 20 0 a10 10 0 1 0 -20 0zM1050 540 a10 10 0 1 0 20 0 a10 10 0 1 0 -20 0z" fill="rgba(73, 195, 58, 0.47)"></path><path d="M820 380L820 220L860 180" stroke-width="6.67" stroke="rgba(73, 195, 58, 0.47)"></path><path d="M810 380 a10 10 0 1 0 20 0 a10 10 0 1 0 -20 0zM850 180 a10 10 0 1 0 20 0 a10 10 0 1 0 -20 0z" fill="rgba(73, 195, 58, 0.47)"></path><path d="M1380 340L1380 260" stroke-width="6.67" stroke="rgba(73, 195, 58, 0.47)"></path><path d="M1370 340 a10 10 0 1 0 20 0 a10 10 0 1 0 -20 0zM1370 260 a10 10 0 1 0 20 0 a10 10 0 1 0 -20 0z" fill="rgba(73, 195, 58, 0.47)"></path><path d="M20 580L60 540L140 540L180 580" stroke-width="6.67" stroke="rgba(73, 195, 58, 0.47)"></path><path d="M10 580 a10 10 0 1 0 20 0 a10 10 0 1 0 -20 0zM170 580 a10 10 0 1 0 20 0 a10 10 0 1 0 -20 0z" fill="rgba(73, 195, 58, 0.47)"></path><path d="M1340 660L1260 580" stroke-width="6.67" stroke="rgba(73, 195, 58, 0.47)"></path><path d="M1330 660 a10 10 0 1 0 20 0 a10 10 0 1 0 -20 0zM1250 580 a10 10 0 1 0 20 0 a10 10 0 1 0 -20 0z" fill="rgba(73, 195, 58, 0.47)"></path><path d="M700 380L620 300" stroke-width="6.67" stroke="rgba(73, 195, 58, 0.47)"></path><path d="M690 380 a10 10 0 1 0 20 0 a10 10 0 1 0 -20 0zM610 300 a10 10 0 1 0 20 0 a10 10 0 1 0 -20 0z" fill="rgba(73, 195, 58, 0.47)"></path><path d="M860 620L740 620" stroke-width="6.67" stroke="rgba(73, 195, 58, 0.47)"></path><path d="M850 620 a10 10 0 1 0 20 0 a10 10 0 1 0 -20 0zM730 620 a10 10 0 1 0 20 0 a10 10 0 1 0 -20 0z" fill="rgba(73, 195, 58, 0.47)"></path><path d="M220 340L300 420" stroke-width="6.67" stroke="rgba(73, 195, 58, 0.47)"></path><path d="M210 340 a10 10 0 1 0 20 0 a10 10 0 1 0 -20 0zM290 420 a10 10 0 1 0 20 0 a10 10 0 1 0 -20 0z" fill="rgba(73, 195, 58, 0.47)"></path><path d="M1260 660L1260 740" stroke-width="6.67" stroke="rgba(73, 195, 58, 0.47)"></path><path d="M1250 660 a10 10 0 1 0 20 0 a10 10 0 1 0 -20 0zM1250 740 a10 10 0 1 0 20 0 a10 10 0 1 0 -20 0z" fill="rgba(73, 195, 58, 0.47)"></path><path d="M660 180L660 300" stroke-width="6.67" stroke="rgba(73, 195, 58, 0.47)"></path><path d="M650 180 a10 10 0 1 0 20 0 a10 10 0 1 0 -20 0zM650 300 a10 10 0 1 0 20 0 a10 10 0 1 0 -20 0z" fill="rgba(73, 195, 58, 0.47)"></path><path d="M1380 660L1380 700L1340 740L1300 740" stroke-width="6.67" stroke="rgba(73, 195, 58, 0.47)"></path><path d="M1370 660 a10 10 0 1 0 20 0 a10 10 0 1 0 -20 0zM1290 740 a10 10 0 1 0 20 0 a10 10 0 1 0 -20 0z" fill="rgba(73, 195, 58, 0.47)"></path></g></g><defs><mask id="SvgjsMask1238"><rect width="1440" height="740" fill="#ffffff"></rect></mask><mask id="SvgjsMask1239"><rect width="1440" height="740" fill="white"></rect><path d="M1335 180 a5 5 0 1 0 10 0 a5 5 0 1 0 -10 0zM1415 20 a5 5 0 1 0 10 0 a5 5 0 1 0 -10 0z" fill="black"></path><path d="M495 580 a5 5 0 1 0 10 0 a5 5 0 1 0 -10 0zM495 740 a5 5 0 1 0 10 0 a5 5 0 1 0 -10 0z" fill="black"></path><path d="M1335 540 a5 5 0 1 0 10 0 a5 5 0 1 0 -10 0zM1415 540 a5 5 0 1 0 10 0 a5 5 0 1 0 -10 0z" fill="black"></path><path d="M1215 460 a5 5 0 1 0 10 0 a5 5 0 1 0 -10 0zM1415 220 a5 5 0 1 0 10 0 a5 5 0 1 0 -10 0z" fill="black"></path><path d="M375 740 a5 5 0 1 0 10 0 a5 5 0 1 0 -10 0zM15 20 a5 5 0 1 0 10 0 a5 5 0 1 0 -10 0z" fill="black"></path><path d="M1415 380 a5 5 0 1 0 10 0 a5 5 0 1 0 -10 0zM655 660 a5 5 0 1 0 10 0 a5 5 0 1 0 -10 0z" fill="black"></path><path d="M295 700 a5 5 0 1 0 10 0 a5 5 0 1 0 -10 0zM15 660 a5 5 0 1 0 10 0 a5 5 0 1 0 -10 0z" fill="black"></path><path d="M975 620 a5 5 0 1 0 10 0 a5 5 0 1 0 -10 0zM975 700 a5 5 0 1 0 10 0 a5 5 0 1 0 -10 0z" fill="black"></path><path d="M95 260 a5 5 0 1 0 10 0 a5 5 0 1 0 -10 0zM55 20 a5 5 0 1 0 10 0 a5 5 0 1 0 -10 0z" fill="black"></path><path d="M135 260 a5 5 0 1 0 10 0 a5 5 0 1 0 -10 0zM455 740 a5 5 0 1 0 10 0 a5 5 0 1 0 -10 0z" fill="black"></path><path d="M1255 140 a5 5 0 1 0 10 0 a5 5 0 1 0 -10 0zM1375 20 a5 5 0 1 0 10 0 a5 5 0 1 0 -10 0z" fill="black"></path><path d="M1055 340 a5 5 0 1 0 10 0 a5 5 0 1 0 -10 0zM1095 20 a5 5 0 1 0 10 0 a5 5 0 1 0 -10 0z" fill="black"></path><path d="M895 500 a5 5 0 1 0 10 0 a5 5 0 1 0 -10 0zM1015 20 a5 5 0 1 0 10 0 a5 5 0 1 0 -10 0z" fill="black"></path><path d="M615 100 a5 5 0 1 0 10 0 a5 5 0 1 0 -10 0zM95 20 a5 5 0 1 0 10 0 a5 5 0 1 0 -10 0z" fill="black"></path><path d="M575 500 a5 5 0 1 0 10 0 a5 5 0 1 0 -10 0zM495 140 a5 5 0 1 0 10 0 a5 5 0 1 0 -10 0z" fill="black"></path><path d="M135 180 a5 5 0 1 0 10 0 a5 5 0 1 0 -10 0zM855 540 a5 5 0 1 0 10 0 a5 5 0 1 0 -10 0z" fill="black"></path><path d="M655 420 a5 5 0 1 0 10 0 a5 5 0 1 0 -10 0zM855 420 a5 5 0 1 0 10 0 a5 5 0 1 0 -10 0z" fill="black"></path><path d="M535 20 a5 5 0 1 0 10 0 a5 5 0 1 0 -10 0zM935 20 a5 5 0 1 0 10 0 a5 5 0 1 0 -10 0z" fill="black"></path><path d="M1055 420 a5 5 0 1 0 10 0 a5 5 0 1 0 -10 0zM1215 220 a5 5 0 1 0 10 0 a5 5 0 1 0 -10 0z" fill="black"></path><path d="M695 340 a5 5 0 1 0 10 0 a5 5 0 1 0 -10 0zM695 60 a5 5 0 1 0 10 0 a5 5 0 1 0 -10 0z" fill="black"></path><path d="M735 60 a5 5 0 1 0 10 0 a5 5 0 1 0 -10 0zM895 60 a5 5 0 1 0 10 0 a5 5 0 1 0 -10 0z" fill="black"></path><path d="M1175 460 a5 5 0 1 0 10 0 a5 5 0 1 0 -10 0zM1415 260 a5 5 0 1 0 10 0 a5 5 0 1 0 -10 0z" fill="black"></path><path d="M375 580 a5 5 0 1 0 10 0 a5 5 0 1 0 -10 0zM455 700 a5 5 0 1 0 10 0 a5 5 0 1 0 -10 0z" fill="black"></path><path d="M735 300 a5 5 0 1 0 10 0 a5 5 0 1 0 -10 0zM735 100 a5 5 0 1 0 10 0 a5 5 0 1 0 -10 0z" fill="black"></path><path d="M535 420 a5 5 0 1 0 10 0 a5 5 0 1 0 -10 0zM535 140 a5 5 0 1 0 10 0 a5 5 0 1 0 -10 0z" fill="black"></path><path d="M1055 580 a5 5 0 1 0 10 0 a5 5 0 1 0 -10 0zM935 340 a5 5 0 1 0 10 0 a5 5 0 1 0 -10 0z" fill="black"></path><path d="M655 140 a5 5 0 1 0 10 0 a5 5 0 1 0 -10 0zM575 140 a5 5 0 1 0 10 0 a5 5 0 1 0 -10 0z" fill="black"></path><path d="M1215 700 a5 5 0 1 0 10 0 a5 5 0 1 0 -10 0zM1095 740 a5 5 0 1 0 10 0 a5 5 0 1 0 -10 0z" fill="black"></path><path d="M815 180 a5 5 0 1 0 10 0 a5 5 0 1 0 -10 0zM855 100 a5 5 0 1 0 10 0 a5 5 0 1 0 -10 0z" fill="black"></path><path d="M1375 740 a5 5 0 1 0 10 0 a5 5 0 1 0 -10 0zM1295 540 a5 5 0 1 0 10 0 a5 5 0 1 0 -10 0z" fill="black"></path><path d="M935 540 a5 5 0 1 0 10 0 a5 5 0 1 0 -10 0zM935 380 a5 5 0 1 0 10 0 a5 5 0 1 0 -10 0z" fill="black"></path><path d="M1255 300 a5 5 0 1 0 10 0 a5 5 0 1 0 -10 0zM1255 460 a5 5 0 1 0 10 0 a5 5 0 1 0 -10 0z" fill="black"></path><path d="M615 260 a5 5 0 1 0 10 0 a5 5 0 1 0 -10 0zM855 460 a5 5 0 1 0 10 0 a5 5 0 1 0 -10 0z" fill="black"></path><path d="M255 500 a5 5 0 1 0 10 0 a5 5 0 1 0 -10 0zM455 620 a5 5 0 1 0 10 0 a5 5 0 1 0 -10 0z" fill="black"></path><path d="M975 500 a5 5 0 1 0 10 0 a5 5 0 1 0 -10 0zM535 580 a5 5 0 1 0 10 0 a5 5 0 1 0 -10 0z" fill="black"></path><path d="M455 460 a5 5 0 1 0 10 0 a5 5 0 1 0 -10 0zM375 140 a5 5 0 1 0 10 0 a5 5 0 1 0 -10 0z" fill="black"></path><path d="M375 20 a5 5 0 1 0 10 0 a5 5 0 1 0 -10 0zM655 60 a5 5 0 1 0 10 0 a5 5 0 1 0 -10 0z" fill="black"></path><path d="M175 180 a5 5 0 1 0 10 0 a5 5 0 1 0 -10 0zM415 420 a5 5 0 1 0 10 0 a5 5 0 1 0 -10 0z" fill="black"></path><path d="M775 260 a5 5 0 1 0 10 0 a5 5 0 1 0 -10 0zM775 380 a5 5 0 1 0 10 0 a5 5 0 1 0 -10 0z" fill="black"></path><path d="M1135 340 a5 5 0 1 0 10 0 a5 5 0 1 0 -10 0zM1055 380 a5 5 0 1 0 10 0 a5 5 0 1 0 -10 0z" fill="black"></path><path d="M95 140 a5 5 0 1 0 10 0 a5 5 0 1 0 -10 0zM415 380 a5 5 0 1 0 10 0 a5 5 0 1 0 -10 0z" fill="black"></path><path d="M175 300 a5 5 0 1 0 10 0 a5 5 0 1 0 -10 0zM175 460 a5 5 0 1 0 10 0 a5 5 0 1 0 -10 0z" fill="black"></path><path d="M255 260 a5 5 0 1 0 10 0 a5 5 0 1 0 -10 0zM375 380 a5 5 0 1 0 10 0 a5 5 0 1 0 -10 0z" fill="black"></path><path d="M975 220 a5 5 0 1 0 10 0 a5 5 0 1 0 -10 0zM975 100 a5 5 0 1 0 10 0 a5 5 0 1 0 -10 0z" fill="black"></path><path d="M1175 20 a5 5 0 1 0 10 0 a5 5 0 1 0 -10 0zM1335 20 a5 5 0 1 0 10 0 a5 5 0 1 0 -10 0z" fill="black"></path><path d="M575 740 a5 5 0 1 0 10 0 a5 5 0 1 0 -10 0zM535 620 a5 5 0 1 0 10 0 a5 5 0 1 0 -10 0z" fill="black"></path><path d="M855 580 a5 5 0 1 0 10 0 a5 5 0 1 0 -10 0zM735 540 a5 5 0 1 0 10 0 a5 5 0 1 0 -10 0z" fill="black"></path><path d="M1095 540 a5 5 0 1 0 10 0 a5 5 0 1 0 -10 0zM1175 500 a5 5 0 1 0 10 0 a5 5 0 1 0 -10 0z" fill="black"></path><path d="M1215 660 a5 5 0 1 0 10 0 a5 5 0 1 0 -10 0zM1135 700 a5 5 0 1 0 10 0 a5 5 0 1 0 -10 0z" fill="black"></path><path d="M1055 660 a5 5 0 1 0 10 0 a5 5 0 1 0 -10 0zM1015 580 a5 5 0 1 0 10 0 a5 5 0 1 0 -10 0z" fill="black"></path><path d="M215 740 a5 5 0 1 0 10 0 a5 5 0 1 0 -10 0zM55 700 a5 5 0 1 0 10 0 a5 5 0 1 0 -10 0z" fill="black"></path><path d="M95 500 a5 5 0 1 0 10 0 a5 5 0 1 0 -10 0zM15 500 a5 5 0 1 0 10 0 a5 5 0 1 0 -10 0z" fill="black"></path><path d="M1015 180 a5 5 0 1 0 10 0 a5 5 0 1 0 -10 0zM1015 100 a5 5 0 1 0 10 0 a5 5 0 1 0 -10 0z" fill="black"></path><path d="M295 180 a5 5 0 1 0 10 0 a5 5 0 1 0 -10 0zM415 300 a5 5 0 1 0 10 0 a5 5 0 1 0 -10 0z" fill="black"></path><path d="M1055 220 a5 5 0 1 0 10 0 a5 5 0 1 0 -10 0zM975 300 a5 5 0 1 0 10 0 a5 5 0 1 0 -10 0z" fill="black"></path><path d="M1095 140 a5 5 0 1 0 10 0 a5 5 0 1 0 -10 0zM1095 60 a5 5 0 1 0 10 0 a5 5 0 1 0 -10 0z" fill="black"></path><path d="M1135 580 a5 5 0 1 0 10 0 a5 5 0 1 0 -10 0zM1215 540 a5 5 0 1 0 10 0 a5 5 0 1 0 -10 0z" fill="black"></path><path d="M615 620 a5 5 0 1 0 10 0 a5 5 0 1 0 -10 0zM615 740 a5 5 0 1 0 10 0 a5 5 0 1 0 -10 0z" fill="black"></path><path d="M1135 500 a5 5 0 1 0 10 0 a5 5 0 1 0 -10 0zM1135 380 a5 5 0 1 0 10 0 a5 5 0 1 0 -10 0z" fill="black"></path><path d="M95 580 a5 5 0 1 0 10 0 a5 5 0 1 0 -10 0zM215 620 a5 5 0 1 0 10 0 a5 5 0 1 0 -10 0z" fill="black"></path><path d="M335 620 a5 5 0 1 0 10 0 a5 5 0 1 0 -10 0zM255 540 a5 5 0 1 0 10 0 a5 5 0 1 0 -10 0z" fill="black"></path><path d="M1095 460 a5 5 0 1 0 10 0 a5 5 0 1 0 -10 0zM1055 540 a5 5 0 1 0 10 0 a5 5 0 1 0 -10 0z" fill="black"></path><path d="M815 380 a5 5 0 1 0 10 0 a5 5 0 1 0 -10 0zM855 180 a5 5 0 1 0 10 0 a5 5 0 1 0 -10 0z" fill="black"></path><path d="M1375 340 a5 5 0 1 0 10 0 a5 5 0 1 0 -10 0zM1375 260 a5 5 0 1 0 10 0 a5 5 0 1 0 -10 0z" fill="black"></path><path d="M15 580 a5 5 0 1 0 10 0 a5 5 0 1 0 -10 0zM175 580 a5 5 0 1 0 10 0 a5 5 0 1 0 -10 0z" fill="black"></path><path d="M1335 660 a5 5 0 1 0 10 0 a5 5 0 1 0 -10 0zM1255 580 a5 5 0 1 0 10 0 a5 5 0 1 0 -10 0z" fill="black"></path><path d="M695 380 a5 5 0 1 0 10 0 a5 5 0 1 0 -10 0zM615 300 a5 5 0 1 0 10 0 a5 5 0 1 0 -10 0z" fill="black"></path><path d="M855 620 a5 5 0 1 0 10 0 a5 5 0 1 0 -10 0zM735 620 a5 5 0 1 0 10 0 a5 5 0 1 0 -10 0z" fill="black"></path><path d="M215 340 a5 5 0 1 0 10 0 a5 5 0 1 0 -10 0zM295 420 a5 5 0 1 0 10 0 a5 5 0 1 0 -10 0z" fill="black"></path><path d="M1255 660 a5 5 0 1 0 10 0 a5 5 0 1 0 -10 0zM1255 740 a5 5 0 1 0 10 0 a5 5 0 1 0 -10 0z" fill="black"></path><path d="M655 180 a5 5 0 1 0 10 0 a5 5 0 1 0 -10 0zM655 300 a5 5 0 1 0 10 0 a5 5 0 1 0 -10 0z" fill="black"></path><path d="M1375 660 a5 5 0 1 0 10 0 a5 5 0 1 0 -10 0zM1295 740 a5 5 0 1 0 10 0 a5 5 0 1 0 -10 0z" fill="black"></path></mask></defs></svg>